<?xml version="1.0" encoding="UTF-8" standalone="no"?>
<svg
   width="900px"
   height="900px"
   viewBox="0 0 900 900"
   version="1.1"
   xml:space="preserve"
   id="SVGRoot"
   inkscape:version="1.4.2 (f4327f4, 2025-05-13)"
   sodipodi:docname="semana11ufredo.svg"
   xmlns:inkscape="http://www.inkscape.org/namespaces/inkscape"
   xmlns:sodipodi="http://sodipodi.sourceforge.net/DTD/sodipodi-0.dtd"
   xmlns="http://www.w3.org/2000/svg"
   xmlns:svg="http://www.w3.org/2000/svg"><defs
   id="defs5" />
<sodipodi:namedview
   pagecolor="#a9a9a9"
   bordercolor="#292929"
   borderopacity="1"
   inkscape:showpageshadow="2"
   inkscape:pageopacity="0.0"
   inkscape:pagecheckerboard="0"
   inkscape:deskcolor="#232323"
   id="namedview1"
   inkscape:zoom="0.50675986"
   inkscape:cx="486.42369"
   inkscape:cy="431.17069"
   inkscape:window-width="1600"
   inkscape:window-height="847"
   inkscape:window-x="-8"
   inkscape:window-y="-8"
   inkscape:window-maximized="1"
   inkscape:current-layer="SVGRoot" />
<style
   type="text/css"
   id="style1">
g.prefab path {
  vector-effect:non-scaling-stroke;
  -inkscape-stroke:hairline;
  fill: none;
  fill-opacity: 1;
  stroke-opacity: 1;
  stroke: #00349c;
}
</style>
<g
   inkscape:label="Celtic Flower"
   style="fill: white; stroke-width: 2; stroke: black;"
   class="prefab"
   id="g5">
  <path
   d="M 856.63991,48.101367 H 56.639914 L 856.63991,848.10137 Z m -400,0 H 856.63989 V 848.10137 H 456.63991 v -400 z M 56.815546,448.10137 H 856.63988 v 400 H 56.815546 Z m -10e-7,-400.000001 H 856.63989 L 56.815545,848.1014 Z"
   id="path1" />
  <path
   d="M 336.51882,87.866992 A 239.94731,240 0 0 0 96.571555,327.86699 a 239.94731,240 0 0 0 239.947265,240 239.94731,240 0 0 0 239.94921,-240 A 239.94731,240 0 0 0 336.51882,87.866992 Z m 0,79.999998 a 159.96487,160 0 0 1 159.96484,160 159.96487,160 0 0 1 -159.96484,160 159.96487,160 0 0 1 -159.96485,-160 159.96487,160 0 0 1 159.96485,-160 z m 0,80 a 79.982437,80 0 0 0 -79.98243,80 79.982437,80 0 0 0 79.98243,80 79.982437,80 0 0 0 79.98242,-80 79.982437,80 0 0 0 -79.98242,-80 z"
   id="path2" />
  <path
   d="m 576.46803,87.866992 a 239.94731,240 0 0 0 -239.94921,239.999998 239.94731,240 0 0 0 239.94921,240 239.94731,240 0 0 0 239.94727,-240 A 239.94731,240 0 0 0 576.46803,87.866992 Z m 0,79.999998 a 159.96487,160 0 0 1 159.96485,160 159.96487,160 0 0 1 -159.96485,160 159.96487,160 0 0 1 -159.96679,-160 159.96487,160 0 0 1 159.96679,-160 z m 0,80 a 79.982437,80 0 0 0 -79.98437,80 79.982437,80 0 0 0 79.98437,80 79.982437,80 0 0 0 79.98243,-80 79.982437,80 0 0 0 -79.98243,-80 z"
   id="path3" />
  <path
   d="m 336.51882,327.86699 a 239.94731,240 0 0 0 -239.947265,240 239.94731,240 0 0 0 239.947265,240 239.94731,240 0 0 0 239.94921,-240 239.94731,240 0 0 0 -239.94921,-240 z m 0,80 a 159.96487,160 0 0 1 159.96484,160 159.96487,160 0 0 1 -159.96484,160 159.96487,160 0 0 1 -159.96485,-160 159.96487,160 0 0 1 159.96485,-160 z m 0,80 a 79.982437,80 0 0 0 -79.98243,80 79.982437,80 0 0 0 79.98243,80 79.982437,80 0 0 0 79.98242,-80 79.982437,80 0 0 0 -79.98242,-80 z"
   id="path4" />
  <path
   d="m 576.46803,327.86699 a 239.94731,240 0 0 0 -239.94921,240 239.94731,240 0 0 0 239.94921,240 239.94731,240 0 0 0 239.94727,-240 239.94731,240 0 0 0 -239.94727,-240 z m 0,80 a 159.96487,160 0 0 1 159.96485,160 159.96487,160 0 0 1 -159.96485,160 159.96487,160 0 0 1 -159.96679,-160 159.96487,160 0 0 1 159.96679,-160 z m 0,80 a 79.982437,80 0 0 0 -79.98437,80 79.982437,80 0 0 0 79.98437,80 79.982437,80 0 0 0 79.98243,-80 79.982437,80 0 0 0 -79.98243,-80 z"
   id="path5" />
</g>
<path
   style="fill:#00ffff;stroke-width:1.39535"
   d="m 320.23256,644.56734 c -10.35194,-2.23137 -26.29672,-9.79683 -33.48837,-15.88953 l -4.88372,-4.13744 26.51162,-26.59489 26.51163,-26.59489 1.03456,14.32471 c 1.12956,15.64008 5.17965,37.98906 9.26054,51.10096 l 2.59643,8.34236 -2.95739,0.79373 c -4.82214,1.29421 -14.89869,0.74294 -24.5853,-1.34501 z"
   id="path6" /><path
   style="fill:#00ffff;stroke-width:1.39535"
   d="m 275.4758,617.09298 c -5.17228,-6.52634 -10.62963,-16.22793 -13.1552,-23.38616 -3.06323,-8.68213 -5.12177,-24.62179 -4.07838,-31.57964 l 0.8783,-5.85692 5.78858,2.08231 c 10.83381,3.8972 37.83823,8.88563 52.99709,9.78995 l 15.11549,0.90173 -26.26451,26.29183 c -14.44548,14.46051 -26.58466,26.29181 -26.97596,26.29179 -0.39129,-3e-5 -2.32873,-2.04072 -4.30541,-4.53489 z"
   id="path7" /><path
   style="fill:#00ffff;stroke-width:1.39535"
   d="m 300.59786,563.67907 c -11.93553,-1.86073 -31.6068,-6.4937 -38.17525,-8.99102 l -3.46867,-1.31878 2.15484,-7.38231 c 5.43094,-18.6059 21.03351,-37.94953 37.77725,-46.83518 10.34352,-5.48914 27.42765,-10.08201 37.50212,-10.08201 11.66407,0 11.83333,0.19184 8.79162,9.96485 -4.48066,14.39641 -8.2367,35.52821 -9.149,51.47314 l -0.87576,15.30619 -11.29844,-0.13514 c -6.21414,-0.0743 -16.68056,-0.97421 -23.25871,-1.99974 z"
   id="path8" /><path
   style="fill:#00ffff;stroke-width:1.39535"
   d="m 338.37209,555.17022 c 0,-10.86874 4.78638,-39.19314 8.99202,-53.2122 3.12453,-10.41528 3.37933,-10.78099 7.23952,-10.39073 5.62103,0.56829 25.36627,10.31385 31.21032,15.40433 l 4.88372,4.25398 -26.16279,26.24302 -26.16279,26.24301 z"
   id="path9" /><path
   style="fill:#00ffff;stroke-width:1.39535"
   d="m 366.97674,539.94072 26.51163,-25.74031 3.91105,4.5277 c 8.26432,9.56735 18.14044,31.9752 15.28091,34.67074 -4.14569,3.90795 -47.71935,12.45761 -62.93527,12.34865 l -9.27994,-0.0665 z"
   id="path10" /><path
   style="fill:#00ffff;stroke-width:1.39535"
   d="m 350.3018,643.70086 c -6.16974,-18.47234 -10.48151,-40.68143 -11.48969,-59.18124 l -0.84363,-15.48038 15.89948,-0.82803 c 15.29937,-0.79677 35.92828,-4.34281 50.58495,-8.69537 10.69112,-3.17492 10.66647,-3.19032 10.63914,6.64695 -0.0929,33.45561 -20.53709,63.60669 -50.70253,74.77623 -12.14072,4.49542 -13.42464,4.74713 -14.08772,2.76184 z"
   id="path11" /><path
   style="fill:#00ffff;stroke-width:1.39535"
   d="m 551.86047,642.13545 c -29.09159,-9.83328 -48.3457,-33.00463 -53.1489,-63.96204 -0.84506,-5.44656 -1.13518,-12.5789 -0.6447,-15.84965 l 0.89178,-5.94682 8.66021,2.73375 c 14.58944,4.60541 34.3673,8.06449 51.53154,9.01268 l 16.35969,0.90374 -0.74859,10.60272 c -1.64599,23.31297 -9.11376,60.79354 -12.87087,64.59864 -0.52822,0.53497 -5.04179,-0.4069 -10.03016,-2.09302 z"
   id="path12" /><path
   style="fill:#00ffff;stroke-width:1.39535"
   d="m 567.52566,645.57388 c -1.401,-0.88914 -1.04098,-3.90886 1.7026,-14.28096 4.45941,-16.85876 7.73572,-37.29793 7.74287,-48.30359 0.003,-4.75122 0.51751,-8.95496 1.14317,-9.34163 0.62565,-0.38667 12.71286,10.91877 26.86046,25.12321 l 25.72291,25.82624 -4.70984,3.99562 c -7.4244,6.29852 -19.98527,12.39804 -31.70319,15.39498 -11.08428,2.83488 -23.62053,3.57796 -26.75898,1.58613 z"
   id="path13" /><path
   style="fill:#00ffff;stroke-width:1.39535"
   d="m 577.85621,562.67442 c -0.46275,-1.72675 -0.85246,-6.59302 -0.86602,-10.81395 -0.0326,-10.14839 -3.4566,-31.063 -7.7311,-47.2236 -1.89664,-7.17065 -3.09669,-13.6067 -2.66676,-14.30232 0.42992,-0.69563 4.35508,-1.25388 8.72258,-1.24055 26.10903,0.0797 52.26118,14.12888 66.64851,35.80431 5.99165,9.02681 12.60966,26.66814 10.71508,28.56272 -1.81252,1.81253 -31.28177,9.05771 -44.08425,10.83837 -5.98907,0.83301 -15.16589,1.51455 -20.39294,1.51455 -8.6762,0 -9.577,-0.27337 -10.3451,-3.13953 z"
   id="path14" /><path
   style="fill:#00ffff;stroke-width:1.39535"
   d="m 540.17806,563.61847 c -10.90446,-1.69572 -37.58945,-8.22037 -40.21013,-9.83162 -2.89693,-1.7811 7.81613,-26.09369 15.6051,-35.41476 l 4.081,-4.88372 26.21484,26.16279 26.21485,26.16279 -9.76279,-0.13514 c -5.36953,-0.0743 -15.33383,-1.00149 -22.14287,-2.06034 z"
   id="path15" /><path
   style="fill:#00ffff;stroke-width:1.39535"
   d="m 605.79654,595.33165 -26.26894,-26.29627 15.11992,-0.85462 c 16.09054,-0.90949 31.10521,-3.45285 47.57229,-8.05836 5.56973,-1.55774 10.74996,-2.44711 11.51162,-1.97637 1.99906,1.23548 1.65818,15.21942 -0.6347,26.03763 -1.0841,5.11497 -3.90167,13.19106 -6.26127,17.94686 -4.24492,8.55568 -12.00444,19.49739 -13.82695,19.49739 -0.51867,0 -12.76406,-11.83332 -27.21197,-26.29626 z"
   id="path16" /><path
   style="fill:#00ffff;stroke-width:1.39535"
   d="m 548.35832,537.84609 -26.49785,-26.57251 4.88372,-4.07681 c 6.60403,-5.5129 18.64905,-11.81445 27.61486,-14.44718 l 7.38231,-2.16775 1.41341,3.71755 c 5.07522,13.34885 10.14391,40.12785 11.48932,60.70061 0.33877,5.18023 0.52508,9.4186 0.41402,9.4186 -0.11106,0 -12.12597,-11.95763 -26.69979,-26.57251 z"
   id="path24" /><path
   style="fill:#00ffff;stroke-width:1.39535"
   d=""
   id="path25" /><path
   style="fill:#00ffff;stroke-width:1.39535"
   d="m 567.52566,405.57388 c -1.401,-0.88914 -1.04098,-3.90886 1.7026,-14.28096 4.23929,-16.02661 7.7353,-37.16474 7.74287,-46.81618 0.003,-3.93314 0.36807,-8.96343 0.81107,-11.17843 l 0.80545,-4.02728 15.83616,1.01484 c 17.0585,1.09316 38.59197,5.00717 50.92503,9.25632 7.13453,2.45809 7.64247,2.92615 7.22025,6.65341 -0.2498,2.20512 -1.77394,7.15507 -3.38699,10.99988 -9.93326,23.67658 -29.4032,40.27194 -54.89746,46.79227 -11.08428,2.83488 -23.62053,3.57796 -26.75898,1.58613 z"
   id="path26" /><path
   style="fill:#00ffff;stroke-width:1.39535"
   d="m 643.95349,336.12759 c -11.47967,-3.65514 -33.57778,-7.61822 -48.08368,-8.62333 l -14.32581,-0.99263 25.768,-26.50813 25.768,-26.50812 4.70394,5.57789 c 10.52044,12.47506 17.90821,34.48154 17.04675,50.77839 -0.4709,8.90828 -1.23151,9.34714 -10.8772,6.27593 z"
   id="path27" /><path
   style="fill:#00ffff;stroke-width:1.39535"
   d="m 577.96279,322.14884 c -0.54232,-0.54233 -0.98857,-4.80582 -0.99166,-9.47442 -0.007,-10.84237 -3.30156,-31.36284 -7.71204,-48.03755 -1.89664,-7.17065 -3.09669,-13.6067 -2.66676,-14.30232 1.16772,-1.88943 15.40868,-1.4823 25.89411,0.74026 10.46317,2.21785 26.06968,9.68217 33.32751,15.93998 l 4.88372,4.21081 -25.87441,25.95464 c -14.23093,14.27506 -26.31814,25.51092 -26.86047,24.9686 z"
   id="path28" /><path
   style="fill:#00ffff;stroke-width:1.39535"
   d="m 498.07854,333.56797 c -1.12863,-7.52624 1.26124,-23.40271 5.04516,-33.51615 8.30499,-22.19704 28.1576,-40.52566 51.23535,-47.30223 l 7.38231,-2.16775 1.41341,3.71755 c 5.15004,13.54565 10.03135,39.57195 11.6068,61.88558 l 0.74867,10.60358 -17.05745,0.89272 c -16.57765,0.86762 -41.55471,5.42949 -53.61296,9.79201 l -5.85785,2.11929 z"
   id="path29" /><path
   style="fill:#00ffff;stroke-width:1.39535"
   d="m 513.78243,375 c -2.65504,-3.64535 -6.09275,-9.13953 -7.63934,-12.2093 -3.60296,-7.15136 -7.42623,-19.99847 -6.17516,-20.75006 C 506.73166,337.97731 548.35922,330 562.79893,330 h 9.2658 l -25.78566,25.81395 c -14.18212,14.19768 -26.20948,25.81396 -26.72748,25.81396 -0.518,0 -3.11412,-2.98256 -5.76916,-6.62791 z"
   id="path30" /><path
   style="fill:#00ffff;stroke-width:1.39535"
   d="m 551.86047,402.13545 c -9.41276,-3.18162 -18.82766,-8.27833 -25.50667,-13.80792 l -3.87876,-3.21125 26.29927,-26.24421 26.29926,-26.24421 -0.50963,8.80235 c -1.17252,20.25174 -9.01012,59.08829 -12.67331,62.79826 -0.52822,0.53497 -5.04179,-0.4069 -10.03016,-2.09302 z"
   id="path31" /><path
   style="fill:#00ffff;stroke-width:1.39535"
   d="m 366.26493,355.65601 -25.79981,-25.9719 14.65116,0.78544 c 18.96733,1.01684 53.65694,8.25155 57.63955,12.02105 1.38472,1.31062 -3.78147,17.11334 -7.77686,23.78847 -3.88858,6.49667 -10.79254,15.34884 -11.97083,15.34884 -0.51887,0 -12.55332,-11.68736 -26.74321,-25.9719 z"
   id="path32" /><path
   style="fill:#00ffff;stroke-width:1.39535"
   d="m 398.37209,334.78545 c -14.81078,-4.21423 -37.02614,-7.57615 -50.06279,-7.57615 h -9.93721 v -10.29024 c 0,-12.39045 4.53312,-40.09778 8.99202,-54.96104 3.12453,-10.41528 3.37933,-10.78099 7.23952,-10.39073 2.20056,0.22248 9.2505,2.89538 15.66653,5.93977 20.9263,9.9295 36.48351,28.87037 42.16433,51.33498 3.33357,13.18248 3.27562,28.64582 -0.10891,29.06126 -1.15116,0.1413 -7.43023,-1.26173 -13.95349,-3.11785 z"
   id="path33" /><path
   style="fill:#00ffff;stroke-width:1.39535"
   d="m 308.37209,297.86847 -26.51162,-26.59489 4.88372,-4.07681 c 12.00418,-10.02082 34.20438,-18.127 49.64396,-18.127 11.82459,0 11.76414,-0.0945 8.07919,12.628 -4.47637,15.45488 -7.32924,31.62451 -8.54662,48.44089 l -1.037,14.3247 z"
   id="path34" /><path
   style="fill:#00ffff;stroke-width:1.39535"
   d="m 258.20815,333.13953 c -1.14721,-6.86541 1.26286,-23.32502 4.79933,-32.77707 2.90354,-7.76039 13.62247,-24.89803 16.08648,-25.71936 0.7655,-0.25517 13.31121,11.46784 27.87934,26.05113 l 26.48753,26.51507 -9.75367,0.008 c -12.6805,0.0107 -34.37739,3.31782 -50.40722,7.68326 -7.01061,1.90922 -13.07751,3.4713 -13.482,3.4713 -0.40449,0 -1.1289,-2.35465 -1.60979,-5.23256 z"
   id="path35" /><path
   style="fill:#00ffff;stroke-width:1.39535"
   d="m 320.23256,404.56734 c -27.41062,-5.90837 -51.33593,-28.05986 -59.12378,-54.74035 l -2.15484,-7.3823 3.77884,-1.44082 c 13.08401,-4.98874 42.99561,-10.36026 63.23238,-11.35526 l 9.22098,-0.45338 0.84024,15.40239 c 0.87273,15.99794 4.73121,37.97322 9.17362,52.24672 l 2.57525,8.27428 -2.95739,0.79373 c -4.82214,1.29421 -14.89869,0.74294 -24.5853,-1.34501 z"
   id="path38" /><path
   style="fill:#00ffff;stroke-width:1.39535"
   d="m 350.3018,403.70086 c -5.91871,-17.72072 -10.34283,-40.03382 -11.39574,-57.47442 l -0.85324,-14.13342 25.97713,25.80335 c 14.28742,14.19183 25.78498,26.43602 25.55014,27.2093 -0.74799,2.463 -17.33766,12.92403 -24.99093,15.75866 -12.35738,4.57693 -13.6222,4.82804 -14.28736,2.83653 z"
   id="path39" /><path
   style="fill:#2aff80;stroke-width:1.39535"
   d="m 300.59786,803.67907 c -26.78245,-4.17534 -46.94506,-10.80839 -72.45833,-23.83718 -18.42737,-9.41026 -37.21546,-22.14818 -50.66357,-34.3488 l -8.10543,-7.35356 27.20195,-27.10644 27.20196,-27.10645 7.70488,6.58248 c 18.18074,15.5323 41.75078,27.58492 66.32472,33.91539 25.19275,6.48988 61.20511,5.74685 84.03717,-1.73391 l 6.49239,-2.12718 17.22854,17.16015 c 9.53607,9.4982 23.04768,21.20978 30.26139,26.22992 7.16807,4.98837 14.04581,9.78265 15.28387,10.65396 1.87685,1.32086 -0.0109,2.66981 -11.35646,8.11516 -18.71648,8.98303 -42.96989,16.68135 -63.53047,20.16532 -20.31657,3.44262 -56.20647,3.81809 -75.62261,0.79114 z"
   id="path40" /><path
   style="fill:#2aff80;stroke-width:1.39535"
   d="m 442.92288,765.20682 c -17.87824,-12.27922 -36.99294,-29.08177 -46.066,-40.49378 l -4.01847,-5.05439 13.50292,-6.5281 c 15.88486,-7.67968 28.46162,-16.31258 40.51914,-27.81302 l 8.72093,-8.31802 v 47.66304 c 0,26.21467 -0.51611,47.66303 -1.14689,47.66303 -0.63079,0 -5.81103,-3.20344 -11.51163,-7.11876 z"
   id="path41" /><path
   style="fill:#2aff80;stroke-width:1.39535"
   d="m 458.37209,725.5806 v -46.97754 l 8.72093,7.94331 c 11.67452,10.63353 26.90172,20.8127 41.05726,27.44621 9.96054,4.66767 11.45005,5.80547 10.33281,7.89305 -4.24979,7.9408 -50.36747,47.35649 -58.74434,50.20739 -0.87413,0.2975 -1.36666,-16.4651 -1.36666,-46.51242 z"
   id="path42" /><path
   style="fill:#2aff80;stroke-width:1.39535"
   d="m 540.17806,803.61847 c -23.7876,-3.69915 -47.3829,-11.23739 -68.69631,-21.94715 l -11.95808,-6.0088 9.3391,-6.03972 c 14.28655,-9.23931 27.96822,-20.74171 42.27143,-35.53827 l 12.99466,-13.44289 7.2379,2.16082 c 11.99325,3.5805 31.55064,6.25575 45.77604,6.2617 38.319,0.016 79.43275,-15.67187 106.65993,-40.69853 l 5.66319,-5.20549 27.1275,27.2445 27.12751,27.2445 -9.06878,8.29462 c -33.0575,30.23555 -79.94771,51.94231 -126.0579,58.35564 -14.79716,2.0581 -53.26468,1.67524 -68.41619,-0.68093 z"
   id="path43" /><path
   style="fill:#2aff80;stroke-width:1.39535"
   d="m 718.33039,707.7907 -26.75906,-26.86047 6.34985,-6.93827 c 14.56947,-15.91956 28.28518,-41.76134 34.82825,-65.61987 3.55003,-12.94475 3.82611,-15.87008 3.81901,-40.46511 -0.007,-23.87541 -0.35436,-27.79964 -3.49438,-39.46467 l -3.48674,-12.95304 17.53192,-17.74464 c 14.60655,-14.78377 27.22525,-30.40435 35.89251,-44.43105 1.41497,-2.28992 2.47938,-0.79013 8.54152,12.03526 22.37427,47.33617 28.81808,99.80457 18.48476,150.51107 -7.97705,39.14406 -28.65358,80.36923 -55.20586,110.07032 -4.28801,4.79651 -8.2343,8.72093 -8.76955,8.72093 -0.53525,0 -13.01475,-12.08721 -27.73223,-26.86046 z"
   id="path44" /><path
   style="fill:#2aff80;stroke-width:1.39535"
   d="M 721.65086,498.15131 C 713.76065,481.83096 706.3319,470.78416 695.3582,459.05324 L 686.88933,450 h 47.02045 c 30.07533,0 46.85284,0.49251 46.55534,1.36666 -2.83747,8.3374 -37.92924,49.63643 -48.68175,57.29289 l -3.75838,2.6762 z"
   id="path45" /><path
   style="fill:#2aff80;stroke-width:1.39535"
   d="m 694.59251,437.54524 c 11.44773,-12.1352 18.87285,-23.03234 26.82087,-39.36242 3.42792,-7.04304 6.53788,-13.11082 6.91101,-13.48396 1.04359,-1.04358 23.79801,21.54613 32.74749,32.51044 6.73031,8.24554 16.25521,21.59357 20.16282,28.25582 0.81029,1.38148 -9.03978,1.74418 -47.36788,1.74418 h -48.3909 z"
   id="path46" /><path
   style="fill:#2aff80;stroke-width:1.39535"
   d="m 781.41544,440.2714 c -4.82685,-9.3341 -23.6344,-32.31269 -37.37141,-45.65945 l -14.6412,-14.22526 3.58643,-12.98404 c 3.2712,-11.8428 3.58609,-15.31432 3.58253,-39.49567 -0.004,-24.29398 -0.31337,-27.65982 -3.70346,-40.23797 -6.29729,-23.36463 -20.12703,-49.46769 -34.92137,-65.91263 l -6.37011,-7.08082 27.07099,-27.04429 27.071,-27.04429 3.69492,3.42744 c 2.03221,1.88509 7.30188,7.82279 11.71038,13.19488 51.61996,62.90287 67.50114,150.6109 41.09362,226.95037 -4.98237,14.40315 -16.48316,40.25893 -17.90738,40.25893 -0.41269,0 -1.71541,-1.86623 -2.89494,-4.1472 z"
   id="path47" /><path
   style="fill:#2aff80;stroke-width:1.39535"
   d="m 682.36405,206.26895 c -20.37836,-18.66212 -50.33816,-32.70611 -80.25886,-37.62223 -18.86051,-3.09888 -46.44403,-1.92665 -64.39398,2.73657 l -13.45159,3.49459 -17.94376,-17.68499 c -14.98917,-14.773 -31.95571,-28.44068 -44.63019,-35.95259 -2.27398,-1.34774 -0.88326,-2.38119 10.63991,-7.9065 68.73509,-32.958161 150.40635,-31.395553 216.27907,4.13805 18.93059,10.21169 41.75309,26.72077 51.57131,37.30505 l 3.43179,3.69955 -27.15272,27.07322 -27.1527,27.07323 z"
   id="path48" /><path
   style="fill:#2aff80;stroke-width:1.39535"
   d="m 445.61392,209.40896 c -13.29249,-12.71964 -32.98898,-25.32407 -49.09715,-31.41885 l -3.94835,-1.49392 4.30677,-5.43774 c 9.61618,-12.14141 34.45387,-33.40972 52.77597,-45.19163 l 5.93024,-3.81339 v 48.15933 c 0,26.48763 -0.15698,48.13845 -0.34884,48.11293 -0.19186,-0.0255 -4.52025,-4.03805 -9.61864,-8.91673 z"
   id="path49" /><path
   style="fill:#2aff80;stroke-width:1.39535"
   d="m 458.37209,170.20479 c 0,-30.02868 0.49254,-46.78135 1.36666,-46.48386 8.36567,2.84709 54.49296,42.26362 58.73507,50.19008 1.1076,2.06956 -0.58167,3.32102 -11.61209,8.60261 -15.34534,7.34765 -25.90913,14.42331 -38.90439,26.05826 l -9.58525,8.58188 z"
   id="path50" /><path
   style="fill:#2aff80;stroke-width:1.39535"
   d="m 196.05472,185.58962 c -23.7484,-23.77185 -26.78487,-27.30992 -25.13957,-29.29238 1.02923,-1.24014 6.6339,-6.22173 12.45483,-11.07019 47.8573,-39.86206 107.81463,-59.313454 169.69258,-55.051787 29.73184,2.047697 58.4,9.603211 86.60956,22.826007 11.76163,5.51309 13.47184,6.72252 11.50025,8.1328 -1.2738,0.91114 -8.18077,5.73136 -15.34884,10.71158 -7.16806,4.98022 -20.74131,16.7147 -30.16279,26.07661 l -17.12997,17.02166 -6.59096,-1.94784 c -51.61538,-15.25395 -109.63423,-2.59531 -151.10467,32.96825 l -7.76952,6.66285 z"
   id="path51" /><path
   style="fill:#2aff80;stroke-width:1.39535"
   d="m 121.07631,429.5424 c -8.8267,-18.66469 -14.72991,-36.44531 -18.84815,-56.77109 -2.679695,-13.22578 -3.153042,-19.96098 -3.153042,-44.86433 0,-25.02543 0.467019,-31.60931 3.199692,-45.10815 7.98185,-39.42875 26.12917,-77.54375 51.32618,-107.80094 4.84745,-5.82093 9.8282,-11.4256 11.06834,-12.45483 1.98246,-1.64529 5.51643,1.38707 29.25749,25.10472 l 27.00268,26.97604 -7.90661,9.40784 c -33.46106,39.81431 -45.64451,94.54804 -32.34684,145.31707 l 2.78186,10.62086 -17.07779,17.23381 c -9.39279,9.47861 -21.15919,23.09442 -26.14756,30.25736 -4.98837,7.16293 -9.72999,13.96444 -10.53692,15.11448 -1.16062,1.6541 -2.96142,-1.0688 -8.61933,-13.03284 z"
   id="path52" /><path
   style="fill:#2aff80;stroke-width:1.39535"
   d="m 132.37571,445.08852 c 1.53065,-3.98882 12.50413,-19.49868 21.37138,-30.20622 8.49081,-10.25298 29.04089,-30.48237 30.92915,-30.4465 0.49783,0.009 2.64306,4.31146 4.76715,9.56001 4.85798,12.00383 17.76104,31.53096 28.93862,43.79489 l 8.58429,9.4186 h -47.7022 c -42.10622,0 -47.60674,-0.24879 -46.88839,-2.12078 z"
   id="path53" /><path
   style="fill:#2aff80;stroke-width:1.39535"
   d="M 167.57667,495.62403 C 154.1914,481.99008 143.19661,468.31421 133.98191,453.83721 L 131.53951,450 h 47.02174 47.02174 l -7.98069,8.72093 c -10.04636,10.97819 -21.65009,28.54082 -27.85918,42.16578 -2.63392,5.77975 -5.21506,10.50864 -5.73587,10.50864 -0.52082,0 -7.91458,-7.09709 -16.43058,-15.77132 z"
   id="path54" /><path
   style="fill:#2aff80;stroke-width:1.39535"
   d="m 157.03423,724.68024 c -27.39862,-31.59695 -46.38332,-70.36008 -54.80874,-111.90893 -2.718695,-13.40686 -3.144828,-19.71663 -3.077054,-45.56201 0.06601,-25.1742 0.566944,-32.35678 3.114084,-44.65116 4.13234,-19.94579 10.63437,-39.31233 19.10976,-56.91914 l 7.09225,-14.73347 4.83436,7.57049 c 8.45279,13.23686 26.12983,34.23811 38.36848,45.58375 l 11.84514,10.98084 -2.86246,11.08435 c -13.21373,51.16771 -1.72258,103.49043 31.76393,144.63082 l 9.11338,11.19639 -27.19251,27.19253 -27.19252,27.19252 z"
   id="path55" /><path
   style="fill:#7f2aff;stroke-width:1.39535"
   d="m 114.29924,793.37521 52.89011,-52.90385 11.28905,9.7828 c 30.99737,26.86155 69.53653,45.7135 111.05648,54.32476 14.14562,2.93381 19.76566,3.32774 47.44186,3.32539 27.66013,-0.002 33.22146,-0.3927 46.74419,-3.28101 20.73427,-4.42861 41.58833,-11.5505 58.13329,-19.85315 l 13.72718,-6.88862 v 34.19877 34.19877 H 258.49525 61.409119 Z"
   id="path56" /><path
   style="fill:#7f2aff;stroke-width:1.39535"
   d="M 57.906977,647.7839 V 450 h 33.488372 c 18.418601,0 33.488371,0.32963 33.488371,0.73251 0,0.40288 -2.11924,4.9552 -4.70943,10.11628 -16.00786,31.89647 -24.592895,69.26896 -24.592895,107.05819 0,59.73901 20.171125,113.54942 59.685465,159.22262 l 9.78978,11.31566 -53.57483,53.56127 -53.574833,53.56127 z"
   id="path57" /><path
   style="fill:#7f2aff;stroke-width:1.39535"
   d="m 458.37209,812.7907 c 0,-18.41861 0.32789,-33.48837 0.72865,-33.48837 0.40076,0 5.89494,2.59794 12.2093,5.77321 14.59378,7.33869 43.68912,16.87807 61.71322,20.23367 19.34855,3.60218 69.83493,3.66272 87.2093,0.10458 46.773,-9.57878 86.71448,-29.54258 119.03389,-59.49626 l 6.70832,-6.21728 53.2894,53.28941 53.28941,53.28941 H 655.46284 458.37209 Z"
   id="path58" /><path
   style="fill:#7f2aff;stroke-width:1.39535"
   d="m 801.03573,790.57065 -52.90399,-52.91774 7.45549,-8.12878 C 799.07506,682.10898 821.47094,616.73407 816.87672,550.6164 814.48626,516.21424 805.9962,486.97301 787.96704,451.04651 787.67819,450.47093 802.56395,450 821.04651,450 h 33.60465 v 196.74419 c 0,108.2093 -0.16007,196.74418 -0.35572,196.74418 -0.19565,0 -24.16252,-23.81298 -53.25971,-52.91772 z"
   id="path59" /><path
   style="fill:#7f2aff;stroke-width:1.39535"
   d="m 793.35256,433.46805 c 30.68005,-61.8571 32.12684,-138.81553 3.81922,-203.15377 -10.32175,-23.45949 -27.21622,-49.26892 -42.77034,-65.33956 l -6.43935,-6.65318 53.34454,-53.34454 53.34453,-53.344533 V 249.42088 447.2093 h -34.05701 -34.05702 z"
   id="path60" /><path
   style="fill:#7f2aff;stroke-width:1.39535"
   d="m 740.15745,150.56653 c -7.74877,-8.08113 -30.5547,-24.69781 -45.44135,-33.10911 -26.0215,-14.70276 -57.71446,-25.17454 -87.46185,-28.898574 -21.40224,-2.679317 -61.95366,-1.02088 -81.20774,3.321163 -18.8218,4.244559 -40.80888,11.856601 -55.31636,19.150821 -5.99542,3.01444 -11.22865,5.4808 -11.62941,5.4808 -0.40076,0 -0.72865,-15.06977 -0.72865,-33.488374 V 49.534884 h 197.08615 197.08613 l -53.00949,53.023256 c -29.15521,29.16279 -53.36034,53.02326 -53.78916,53.02326 -0.42882,0 -2.94354,-2.25669 -5.58827,-5.01487 z"
   id="path61" /><path
   style="fill:#7f2aff;stroke-width:1.39535"
   d="M 113.02326,102.55814 60.01377,49.534884 H 257.79758 455.5814 v 33.964366 33.96437 l -13.60466,-6.65303 c -16.25907,-7.95112 -37.9878,-15.349624 -57.7583,-19.66639 -12.76772,-2.787751 -18.35179,-3.155286 -47.93937,-3.155286 -29.49395,0 -35.19416,0.372709 -47.78934,3.124713 -41.04324,8.967803 -79.47926,27.990603 -110.20797,54.544273 -6.31607,5.45792 -11.65595,9.9235 -11.86639,9.9235 -0.21045,0 -24.2369,-23.86047 -53.39211,-53.02326 z"
   id="path62" /><path
   style="fill:#7f2aff;stroke-width:1.39535"
   d="M 57.906977,249.42088 V 51.632467 l 53.223313,53.223313 53.22332,53.22332 -9.81059,11.33441 C 90.500464,243.40338 77.16544,349.18984 120.88834,436.39535 l 5.42188,10.81395 H 92.108597 57.906977 Z"
   id="path63" /><path
   style="fill:#ff2a2a;stroke-width:1.39535"
   d="m 213.84068,667.78734 c -15.84605,-20.06975 -24.79575,-37.92288 -31.31427,-62.46663 -3.15429,-11.87663 -3.65377,-16.654 -3.76575,-36.01838 -0.12612,-21.80994 0.80205,-29.34509 5.60823,-45.52927 l 1.96783,-6.62638 11.4828,8.24144 c 12.15204,8.72177 42.70506,25.05429 52.17806,27.89247 l 5.63717,1.68894 0.0476,13.53332 c 0.0605,17.20066 5.10327,33.02835 14.89459,46.74965 l 6.57255,9.2106 -26.20388,27.18706 c -14.41214,14.95288 -26.69363,27.18705 -27.29221,27.18705 -0.59858,0 -5.01431,-4.97244 -9.81273,-11.04987 z"
   id="path64" /><path
   style="fill:#ff2a2a;stroke-width:1.39535"
   d="m 310.46512,724.30766 c -28.6318,-5.10404 -56.61191,-18.34976 -78.08878,-36.96705 l -6.22832,-5.39903 12.75611,-13.76149 c 7.01587,-7.56882 18.98382,-19.93272 26.59545,-27.47533 l 13.83932,-13.71384 11.02823,7.50201 c 14.9977,10.20228 27.79094,14.24123 45.29388,14.29972 l 13.33543,0.0446 5.28587,12.84852 c 6.17031,14.99837 16.50407,33.5127 26.08744,46.7392 3.72809,5.14535 6.23689,9.68981 5.5751,10.09882 -0.66178,0.40901 -6.45617,2.05531 -12.87638,3.65844 -14.97569,3.73943 -47.37837,4.83955 -62.60335,2.12547 z"
   id="path65" /><path
   style="fill:#ff2a2a;stroke-width:1.39535"
   d="m 386.1108,711.27907 c -11.32702,-14.37283 -31.66625,-51.72635 -32.69415,-60.04365 -0.34304,-2.77577 0.77777,-3.58147 8.75705,-6.29506 24.06893,-8.18536 42.09918,-25.94947 50.84016,-50.08974 l 2.98837,-8.25308 1.7226,9.49193 c 4.36854,24.07167 15.10151,49.07782 28.91065,67.35731 l 7.8744,10.42351 -10.00541,9.54108 c -11.40244,10.87327 -28.93914,22.76525 -42.62857,28.90728 -5.13994,2.30614 -9.86196,4.19298 -10.49337,4.19298 -0.63142,0 -3.0037,-2.35465 -5.27173,-5.23256 z"
   id="path66" /><path
   style="fill:#ff2a2a;stroke-width:1.39535"
   d="m 447.83507,660.34884 c -18.56189,-25.36072 -29.92809,-60.99581 -29.92809,-93.82997 v -11.65128 l 5.23255,-1.69825 c 2.87791,-0.93403 11.35466,-4.75589 18.83721,-8.49302 l 13.60466,-6.79479 v 65.59412 c 0,36.07676 -0.30676,65.59412 -0.68168,65.59412 -0.37491,0 -3.55401,-3.92442 -7.06465,-8.72093 z"
   id="path67" /><path
   style="fill:#ff2a2a;stroke-width:1.39535"
   d="m 444.79203,653.86204 c -15.2008,-22.92391 -24.05927,-51.19801 -26.17553,-83.54599 l -0.93783,-14.33512 4.48824,-1.56461 c 2.46853,-0.86053 10.72232,-4.61322 18.34176,-8.3393 7.61945,-3.72608 14.12785,-6.77469 14.46313,-6.77469 0.80778,0 0.45436,53.8163 -0.62311,94.88372 l -0.86032,32.79069 z"
   id="path68" /><path
   style="fill:#ff2a2a;stroke-width:1.39535"
   d="m 458.37209,604.5168 c 0,-35.86796 0.32789,-65.21447 0.72865,-65.21447 0.40076,0 5.58099,2.41883 11.51163,5.37519 5.93064,2.95635 13.76554,6.49515 17.41089,7.86399 l 6.6279,2.48879 -0.004,14.11276 c -0.0105,33.14717 -10.43746,64.63655 -30.77228,92.93188 l -5.50233,7.65634 z"
   id="path69" /><path
   style="fill:#ff2a2a;stroke-width:1.39535"
   d="m 504.74137,708.81562 c -14.48734,-7.36718 -32.29118,-20.24736 -41.73358,-30.19214 l -4.43407,-4.66999 6.89279,-9.06977 c 13.82353,-18.18944 25.8908,-45.82171 29.59942,-67.77833 l 1.82984,-10.83338 3.24003,8.95702 c 6.25525,17.29259 15.57121,29.56669 29.74789,39.19389 8.93766,6.06944 22.90663,12.32127 27.53044,12.32127 3.87801,0 3.58685,2.07142 -2.25162,16.01876 -8.09073,19.32768 -29.53179,53.60176 -33.59692,53.70553 -0.92963,0.0237 -8.50052,-3.42006 -16.82422,-7.65286 z"
   id="path70" /><path
   style="fill:#ff2a2a;stroke-width:1.39535"
   d="m 550.46512,724.13898 c -13.1438,-2.37155 -22.18253,-4.87167 -23.12483,-6.39635 -0.40005,-0.64729 1.73337,-4.48558 4.74092,-8.52953 11.40477,-15.33481 21.79294,-34.73912 30.72909,-57.3996 0.89075,-2.2588 2.87446,-2.65919 14.92246,-3.01198 19.886,-0.5823 32.61409,-4.92387 47.89781,-16.33802 l 7.49104,-5.59445 27.11544,27.03059 27.11543,27.03059 -6.66102,6.08901 c -33.09144,30.24968 -85.5033,45.18916 -130.22634,37.11974 z"
   id="path71" /><path
   style="fill:#ff2a2a;stroke-width:1.39535"
   d="m 662.25134,651.78638 -26.95005,-26.97666 5.23776,-6.82347 c 11.08566,-14.44178 17.86221,-35.47098 17.21179,-53.41216 l -0.32549,-8.97828 13.84547,-5.91977 c 18.16593,-7.76704 31.14724,-15.07583 46.22774,-26.02735 3.9963,-2.90213 7.82133,-5.2766 8.50006,-5.2766 3.43308,0 8.65254,29.94404 8.65254,49.63955 0,28.07638 -7.59048,56.53727 -21.0518,78.93482 -7.32116,12.18127 -15.85937,23.79501 -21.1427,28.75843 l -3.25526,3.05816 z"
   id="path72" /><path
   style="fill:#ff2a2a;stroke-width:1.39535"
   d="m 655.87844,550.11628 c -0.30008,-0.9593 -1.55981,-4.95989 -2.7994,-8.89019 -7.07953,-22.44673 -27.0734,-42.29984 -50.55961,-50.20366 l -8.8047,-2.96306 7.48569,-0.87979 c 20.88163,-2.45423 51.82028,-15.24882 70.66005,-29.22127 l 10.46511,-7.76141 8.13306,7.9248 c 12.75371,12.42714 34.50247,47.18948 34.40228,54.9872 -0.052,4.04761 -32.08877,24.17437 -52.7294,33.1267 -14.19631,6.15728 -15.44748,6.45602 -16.25308,3.88068 z"
   id="path73" /><path
   style="fill:#ff2a2a;stroke-width:1.39535"
   d="m 561.78868,481.22922 c -1.06003,-2.9784 -4.62653,-11.22341 -7.92555,-18.32224 L 547.86491,450 l 64.43964,0.0567 64.43964,0.0567 -4.45618,3.8164 c -6.65889,5.70289 -24.83644,16.02577 -36.94686,20.98181 -17.14546,7.01658 -31.89452,10.0753 -52.78547,10.94686 l -18.83967,0.78599 z"
   id="path74" /><path
   style="fill:#ff2a2a;stroke-width:1.39535"
   d="m 486.72739,509.01366 c -4.40515,-12.17037 -15.05337,-30.49746 -25.45976,-43.81984 -2.72052,-3.48285 -2.73671,-3.74224 -0.36724,-5.88658 2.32262,-2.10194 3.74604,-0.97355 22.6075,17.92161 l 20.12881,20.16479 -5.53928,5.71597 c -7.45932,7.69724 -10.20494,9.12294 -11.37003,5.90405 z"
   id="path75" /><path
   style="fill:#ff2a2a;stroke-width:1.39535"
   d="m 495.99557,544.88372 c -0.0515,-2.68605 -1.55096,-10.53488 -3.33209,-17.44186 l -3.23841,-12.55814 7.84561,-7.26267 c 4.31508,-3.99447 8.1891,-7.29098 8.60893,-7.32558 0.41983,-0.0346 3.17464,2.40649 6.12179,5.42466 l 5.35847,5.48756 -4.54423,5.73757 c -5.03575,6.35815 -13.95542,23.27472 -13.9955,26.54311 -0.0141,1.15116 -0.63434,3.03489 -1.37828,4.18605 -1.0197,1.57788 -1.37567,0.89102 -1.44629,-2.7907 z"
   id="path76" /><path
   style="fill:#ff2a2a;stroke-width:1.39535"
   d="m 496.03674,542.44186 c -0.005,-2.11046 -1.26119,-9.05722 -2.7907,-15.43723 -1.52951,-6.38001 -2.78092,-11.79792 -2.78092,-12.0398 0,-0.24188 3.50631,-3.43533 7.79181,-7.09654 l 7.79181,-6.65676 4.86431,4.86431 4.8643,4.8643 -7.07661,11.04156 c -3.89213,6.07286 -8.06808,14.02411 -9.27988,17.66946 -2.51505,7.56577 -3.37016,8.27094 -3.38412,2.7907 z"
   id="path77" /><path
   style="fill:#ff2a2a;stroke-width:1.39535"
   d="m 458.37209,499.46299 c 0,-37.54548 -1.14378,-35.73845 11.10221,-17.54005 6.14531,9.13236 15.41077,27.84955 15.4077,31.12514 -0.001,1.58063 -21.33977,17.73657 -25.15398,19.04494 -0.85263,0.29248 -1.35593,-11.81922 -1.35593,-32.63003 z"
   id="path78" /><path
   style="fill:#ff2a2a;stroke-width:1.39535"
   d="m 459.22283,505.51305 c -0.48848,-14.03218 -0.38254,-27.71072 0.23542,-30.39677 l 1.12356,-4.88372 5.68372,8.37209 c 6.51785,9.60076 17.22284,30.34578 17.22284,33.37585 0,1.85291 -10.46755,10.70981 -19.71195,16.67885 l -3.66544,2.36675 z"
   id="path79" /><path
   style="fill:#ff2a2a;stroke-width:1.39535"
   d="m 459.06546,604.88372 c 0.52373,-34.9186 1.10909,-63.64921 1.3008,-63.84578 0.19171,-0.19658 6.8854,2.69121 14.87487,6.41731 7.98947,3.7261 15.68534,7.18684 17.10193,7.69053 2.36754,0.84182 2.5014,2.12703 1.65693,15.90827 -1.17247,19.13408 -4.10274,35.52016 -8.62275,48.21849 -4.49747,12.635 -14.31988,31.43853 -21.63927,41.42513 l -5.62475,7.67442 z"
   id="path80" /><path
   style="fill:#ff2a2a;stroke-width:1.39535"
   d="m 419.30233,548.38785 c 0,-4.44935 2.48101,-16.55025 5.05782,-24.6691 l 2.0674,-6.51381 10.08472,7.21148 c 5.5466,3.96632 11.53458,8.16307 13.30663,9.32612 l 3.22191,2.11463 -5.43515,3.05473 c -2.98934,1.6801 -10.5805,5.25703 -16.86925,7.94872 l -11.43408,4.894 z"
   id="path81" /><path
   style="fill:#ff2a2a;stroke-width:1.39535"
   d="m 442.92288,525.23833 c -17.3133,-11.83858 -16.66346,-10.22376 -9.83828,-24.44781 5.99318,-12.49013 16.63215,-29.52081 20.38944,-32.63909 1.86946,-1.55152 2.10736,1.97199 2.10736,31.2126 0,18.12885 -0.51611,32.96155 -1.14689,32.96155 -0.63079,0 -5.81103,-3.18926 -11.51163,-7.08725 z"
   id="path82" /><path
   style="fill:#ff2a2a;stroke-width:1.39535"
   d="m 486.24738,548.53571 c -4.2035,-1.73557 -11.96802,-5.36001 -17.25449,-8.05432 l -9.61176,-4.89875 5.42571,-3.29866 c 2.98415,-1.81426 8.69542,-5.68663 12.69172,-8.60527 3.9963,-2.91864 7.82133,-5.30662 8.50006,-5.30662 0.67874,0 2.03738,2.66861 3.01922,5.93024 1.75743,5.83813 5.69597,26.56525 5.15138,27.10984 -0.15351,0.15352 -3.71834,-1.14089 -7.92184,-2.87646 z"
   id="path83" /><path
   style="fill:#ff2a2a;stroke-width:1.39535"
   d="m 513.52941,503.06528 -5.40906,-5.53937 7.48546,-8.06528 c 4.117,-4.43591 7.59923,-8.24669 7.7383,-8.46841 0.13907,-0.22172 4.69439,0.82768 10.12293,2.332 5.42854,1.50433 13.46578,3.1844 17.86052,3.73348 l 7.99044,0.99834 -7.84826,2.4283 c -8.52801,2.63861 -18.31984,7.90264 -26.3217,14.15039 -2.79648,2.18345 -5.33766,3.96992 -5.64705,3.96992 -0.30939,0 -2.9966,-2.49272 -5.97158,-5.53937 z"
   id="path84" /><path
   style="fill:#ff2a2a;stroke-width:1.39535"
   d=""
   id="path85" /><path
   style="fill:#ff2a2a;stroke-width:1.39535"
   d="m 485.15414,474.6895 c -19.84617,-19.88164 -19.91452,-19.97209 -17.05093,-22.5636 2.81858,-2.55078 2.95009,-2.53252 6.68828,0.92885 6.51731,6.0347 21.10853,15.19716 33.29851,20.90958 6.42259,3.00973 11.67744,5.78288 11.67744,6.16257 0,1.05026 -12.81477,14.52426 -13.81364,14.52426 -0.48049,0 -9.84034,-8.98274 -20.79966,-19.96166 z"
   id="path86" /><path
   style="fill:#ff2a2a;stroke-width:1.39535"
   d=""
   id="path87" /><path
   style="fill:#ff2a2a;stroke-width:1.39535"
   d=""
   id="path88" /><path
   style="fill:#ff2a2a;stroke-width:1.39535"
   d="M 508.56534,470.82842 C 497.04222,465.25597 478.74905,453.88671 477.15432,451.30639 476.66159,450.50913 488.94176,450 508.66399,450 h 32.31706 l -3.28122,5.53729 c -5.51133,9.30076 -14.35953,20.95897 -15.91317,20.96687 -0.80804,0.004 -6.75763,-2.54998 -13.22132,-5.67574 z"
   id="path89" /><path
   style="fill:#ff2a2a;stroke-width:1.39535"
   d="m 548.37209,483.934 c -11.65477,-2.61433 -19.70163,-4.93796 -20.7577,-5.99403 -0.73343,-0.73342 0.48046,-3.44181 2.94492,-6.5706 2.30596,-2.92757 6.21221,-8.61937 8.68055,-12.64844 2.46833,-4.02907 4.79166,-7.32558 5.16295,-7.32558 0.64265,0 13.06026,25.91286 14.87769,31.04651 0.71391,2.01658 0.0823,2.41367 -3.62662,2.28 -2.4701,-0.089 -5.7469,-0.44356 -7.28179,-0.78786 z"
   id="path90" /><path
   style="fill:#ff2a2a;stroke-width:1.39535"
   d="m 551.05183,438.48837 c 2.59598,-4.79651 6.4687,-13.27325 8.60604,-18.83721 l 3.88608,-10.11628 h 13.51036 c 35.14062,0 71.04454,12.6366 98.9922,34.84087 l 3.48837,2.7715 -66.6015,0.031 -66.60151,0.031 z"
   id="path91" /><path
   style="fill:#ff2a2a;stroke-width:1.39535"
   d="m 476.52353,445.10194 c 4.26454,-5.13846 33.2323,-22.01182 42.99755,-25.04554 2.33522,-0.72547 3.81114,-0.2888 5.2768,1.56123 2.20044,2.7775 14.75314,20.99385 16.43305,23.84749 0.80979,1.37557 -6.10413,1.74418 -32.71478,1.74418 -29.93632,0 -33.54434,-0.23766 -31.99262,-2.10736 z"
   id="path92" /><path
   style="fill:#ff2a2a;stroke-width:1.39535"
   d="m 541.5754,440.5814 c -1.09156,-2.11047 -4.87512,-7.7634 -8.40793,-12.56206 -3.53281,-4.79867 -6.42328,-9.28336 -6.42328,-9.96598 0,-1.32816 14.13295,-5.08862 26.16279,-6.96132 4.02907,-0.62721 7.32558,-1.02846 7.32558,-0.89166 0,2.56673 -14.82829,34.21822 -16.03077,34.21822 -0.35296,0 -1.53484,-1.72674 -2.62639,-3.8372 z"
   id="path93" /><path
   style="fill:#ff2a2a;stroke-width:1.39535"
   d="m 468.06693,443.63344 c -1.56125,-1.88119 0.94791,-4.943 18.27934,-22.30541 l 20.089,-20.12491 5.3812,5.2124 c 9.48004,9.18266 9.46224,9.25366 -3.88907,15.5103 -12.31883,5.7728 -29.38432,16.53995 -33.60225,21.2007 -2.94665,3.25601 -3.9118,3.33419 -6.25822,0.50692 z"
   id="path94" /><path
   style="fill:#ff2a2a;stroke-width:1.39535"
   d="m 448.16791,420.69767 c -3.6937,-4.98837 -9.93757,-15.52357 -13.87526,-23.41156 l -7.15944,-14.3418 2.93123,-2.93123 c 1.61217,-1.61217 7.85604,-6.23176 13.87525,-10.26575 l 10.94403,-7.33452 0.39179,16.58429 c 0.21548,9.12136 0.21548,24.27616 0,33.67732 l -0.39179,17.09302 z"
   id="path95" /><path
   style="fill:#ff2a2a;stroke-width:1.39535"
   d=""
   id="path96" /><path
   style="fill:#ff2a2a;stroke-width:1.39535"
   d="m 388.24391,474.06977 c -1.20374,-1.34303 -5.99672,-8.03378 -10.65107,-14.86834 -6.78764,-9.96715 -8.09491,-12.72869 -6.60535,-13.95349 1.02141,-0.83985 5.14845,-6.36561 9.17122,-12.27946 10.26675,-15.09311 9.61625,-14.77349 20.58198,-10.11299 11.60838,4.93363 41.53439,24.64817 39.47102,26.00257 -0.37225,0.24434 -1.66508,1.07217 -2.87294,1.83961 -1.20786,0.76745 -7.57843,5.0027 -14.15682,9.41168 -10.43106,6.99114 -28.61983,16.40228 -31.70041,16.40228 -0.57696,0 -2.03389,-1.09884 -3.23763,-2.44186 z"
   id="path97" /><path
   style="fill:#ff2a2a;stroke-width:1.39535"
   d="m 416.69355,504.76744 -7.3263,-6.62791 20.30047,-20.19863 c 17.94873,-17.85869 20.54038,-19.95871 22.37143,-18.12767 1.83104,1.83105 1.08958,3.44358 -6.40038,13.91956 -4.65923,6.51673 -11.29745,17.65674 -14.75158,24.75558 -3.45414,7.09884 -6.41235,12.90698 -6.5738,12.90698 -0.16144,0 -3.59037,-2.98256 -7.61984,-6.62791 z"
   id="path98" /><path
   style="fill:#ff2a2a;stroke-width:1.39535"
   d="m 417.32708,504.23077 -6.62086,-5.82792 17.9027,-18.01405 c 9.84649,-9.90773 18.96344,-18.6024 20.25989,-19.32148 4.85573,-2.69327 3.55605,1.36383 -4.08878,12.76356 -4.33405,6.46278 -10.79429,17.25791 -14.35608,23.98916 l -6.476,12.23865 z"
   id="path99" /><path
   style="fill:#ff2a2a;stroke-width:1.39535"
   d="m 413.845,543.34523 c -2.60435,-8.70248 -9.62229,-22.16671 -12.03686,-23.09327 -1.12239,-0.4307 -2.0407,-1.58089 -2.0407,-2.55597 0,-0.97509 -0.97232,-2.57985 -2.16072,-3.56613 -1.89673,-1.57415 -1.44519,-2.52232 3.69584,-7.76064 l 5.85656,-5.96741 8.24568,7.17187 c 7.22056,6.28026 8.12094,7.61414 7.24235,10.72933 -0.55183,1.9566 -2.3449,9.77211 -3.98461,17.3678 l -2.98127,13.81034 z"
   id="path100" /><path
   style="fill:#ff2a2a;stroke-width:1.39535"
   d="m 389.61464,506.16279 c -3.76862,-4.15791 -17.86219,-12.03317 -27.09521,-15.14036 l -8.8047,-2.96306 7.32868,-0.86831 c 6.31245,-0.7479 13.56421,-2.40925 25.53126,-5.8491 2.23678,-0.64295 4.46362,1.03064 10.30036,7.74129 l 7.44664,8.56157 -5.351,5.47992 c -6.11611,6.26346 -6.36064,6.34287 -9.35603,3.03805 z"
   id="path101" /><path
   style="fill:#ff2a2a;stroke-width:1.39535"
   d="m 399.64347,487.84789 c -3.22311,-3.7418 -5.6126,-7.3216 -5.30997,-7.9551 0.30262,-0.63351 6.51534,-4.08469 13.80603,-7.66928 7.2907,-3.5846 17.96512,-9.99575 23.72094,-14.247 9.75429,-7.20454 10.63507,-7.57737 12.96734,-5.48911 2.36123,2.11418 1.37932,3.36537 -17.42381,22.2021 -10.95932,10.97892 -20.37026,19.96166 -20.91319,19.96166 -0.54293,0 -3.62423,-3.06147 -6.84734,-6.80327 z"
   id="path102" /><path
   style="fill:#ff2a2a;stroke-width:1.39535"
   d="m 353.73588,483.13953 c 0.008,-0.9593 3.35118,-8.65116 7.42879,-17.09302 l 7.41385,-15.34884 3.9603,6.27907 c 2.17816,3.45349 6.36489,9.54174 9.30384,13.52944 2.93895,3.98771 4.79351,7.59031 4.12124,8.0058 -2.20564,1.36316 -24.48032,6.35196 -28.40576,6.36197 -2.15266,0.005 -3.83065,-0.75594 -3.82226,-1.73442 z"
   id="path103" /><path
   style="fill:#ff2a2a;stroke-width:1.39535"
   d="m 310.46512,484.21753 c -22.63653,-3.84034 -48.67605,-14.726 -66.93191,-27.98048 l -7.62958,-5.53938 64.01071,-0.36306 c 35.20589,-0.19968 64.26671,-0.10705 64.5796,0.20584 0.31289,0.31289 -1.56398,4.87162 -4.17082,10.1305 -2.60685,5.25889 -6.17356,13.17207 -7.92604,17.58486 l -3.18632,8.02326 -14.14026,-0.14305 c -7.77715,-0.0787 -18.84957,-0.942 -24.60538,-1.91849 z"
   id="path104" /><path
   style="fill:#ff2a2a;stroke-width:1.39535"
   d="m 234.02825,542.83786 c -17.04552,-8.2979 -41.04424,-23.23776 -45.01645,-28.02398 -3.89081,-4.68815 19.40797,-43.50913 35.50499,-59.15926 l 6.38306,-6.20585 3.8524,3.66111 c 6.13738,5.83262 27.34822,18.57112 38.9984,23.42111 11.81991,4.92064 34.64544,11.10162 41.42827,11.21847 3.67294,0.0633 3.1269,0.4682 -3.48234,2.58247 -24.31365,7.77782 -44.19119,27.46533 -51.70331,51.20903 -2.12552,6.71817 -3.97287,10.27772 -5.34211,10.29341 -1.15116,0.0132 -10.43147,-4.03524 -20.62291,-8.99651 z"
   id="path105" /><path
   style="fill:#ff2a2a;stroke-width:1.39535"
   d="m 235.80098,445.83495 c 2.10193,-3.401 19.8363,-14.61688 33.22361,-21.01186 20.55878,-9.82072 37.50649,-13.95815 61.03637,-14.90076 l 18.89818,-0.75707 4.01014,9.60342 c 2.20558,5.28188 6.11046,13.84179 8.67751,19.02202 l 4.66736,9.4186 h -65.68128 c -42.76317,0 -65.38491,-0.47955 -64.83189,-1.37435 z"
   id="path106" /><path
   style="fill:#ff2a2a;stroke-width:1.39535"
   d="m 360.99599,429.43533 c -4.00128,-8.42626 -7.27506,-16.03702 -7.27506,-16.91279 0,-0.87577 1.72674,-1.58791 3.83721,-1.58253 3.85545,0.01 26.18308,4.98827 28.33423,6.31776 0.63293,0.39117 -2.10835,5.2688 -6.09173,10.83917 -3.98337,5.57038 -8.2071,11.59741 -9.38605,13.39341 -2.1015,3.20142 -2.28622,2.965 -9.4186,-12.05502 z"
   id="path107" /><path
   style="fill:#ff2a2a;stroke-width:1.39535"
   d="m 429.11949,418.65446 -20.12605,-20.16202 2.71258,-3.0046 c 1.49192,-1.65253 5.0139,-4.82967 7.82661,-7.06029 l 5.11403,-4.05569 7.05722,14.3257 c 3.88147,7.87913 10.56996,18.97543 14.86331,24.65843 7.5759,10.02803 7.73049,10.40835 5.24222,12.89661 -2.48827,2.48827 -3.15738,1.96931 -22.68992,-17.59814 z"
   id="path108" /><path
   style="fill:#ff2a2a;stroke-width:1.39535"
   d="m 433.25581,438.73667 c -9.43612,-7.12184 -21.1423,-13.91377 -32.37777,-18.7856 -3.6101,-1.56539 -6.89956,-3.18189 -7.30991,-3.59224 -0.41034,-0.41034 2.34313,-4.1543 6.11883,-8.3199 l 6.8649,-7.57381 20.39521,20.30496 c 19.27409,19.1888 20.25733,20.42883 17.88686,22.55844 -2.34124,2.10335 -3.11257,1.79745 -11.57812,-4.59185 z"
   id="path109" /><path
   style="fill:#ff2a2a;stroke-width:1.39535"
   d=""
   id="path110" /><path
   style="fill:#ff2a2a;stroke-width:1.39535"
   d="m 458.37209,396.35097 c 0,-20.81081 0.5033,-32.92251 1.35593,-32.63004 3.73156,1.28002 25.15248,17.44675 25.15398,18.98413 0.005,4.96865 -14.66074,31.60209 -23.90533,43.41335 -2.56286,3.27441 -2.60458,2.79765 -2.60458,-29.76744 z"
   id="path111" /><path
   style="fill:#ff2a2a;stroke-width:1.39535"
   d="m 460.85753,436.46184 c -2.10368,-2.3416 -1.79355,-3.11129 4.66518,-11.57812 3.80526,-4.98837 10.44698,-16.10182 14.75937,-24.69655 8.77562,-17.49007 8.30765,-17.29373 17.82132,-7.4767 l 5.54525,5.72208 -20.26882,20.26882 c -19.15578,19.15578 -20.39257,20.13108 -22.5223,17.76047 z"
   id="path112" /><path
   style="fill:#ff2a2a;stroke-width:1.39535"
   d="m 460.78896,435.20756 c -0.46143,-0.46142 2.43168,-5.69695 6.42912,-11.63451 3.99745,-5.93756 10.32322,-16.5484 14.05727,-23.57965 3.73406,-7.03125 7.51584,-12.7841 8.40397,-12.7841 0.88813,0 4.07762,2.52218 7.08775,5.60483 l 5.47297,5.60483 -18.77505,18.81378 c -17.66348,17.69991 -20.61296,20.0379 -22.67603,17.97482 z"
   id="path113" /><path
   style="fill:#ff2a2a;stroke-width:1.39535"
   d=""
   id="path114" /><path
   style="fill:#ff2a2a;stroke-width:1.39535"
   d=""
   id="path115" /><path
   style="fill:#ff2a2a;stroke-width:1.39535"
   d=""
   id="path116" /><path
   style="fill:#ff2a2a;stroke-width:1.39535"
   d="m 536.01168,430.91855 c -4.45406,-6.57152 -7.57647,-12.43061 -6.9387,-13.02019 1.18886,-1.09904 15.09482,-4.6152 24.65299,-6.23359 5.11109,-0.8654 5.30767,-0.76024 4.33493,2.31901 -0.90948,2.87899 -12.71215,27.64421 -13.59594,28.52801 -0.19524,0.19524 -3.99922,-5.02172 -8.45328,-11.59324 z"
   id="path117" /><path
   style="fill:#ff2a2a;stroke-width:1.39535"
   d="M 673.25581,438.7373 C 655.4218,424.91698 622.52179,411.09122 601.74109,408.68425 l -8.02636,-0.92967 8.72403,-2.94706 c 23.96879,-8.09687 42.7018,-26.81966 50.74362,-50.71592 1.63999,-4.87324 3.34689,-9.22552 3.79309,-9.67172 2.28939,-2.2894 36.00589,14.29464 53.25709,26.1954 13.04156,8.99675 14.65116,10.34185 14.65116,12.2436 0,3.33044 -8.45682,20.09901 -15.87907,31.48575 -4.22407,6.48029 -11.95488,16.20109 -17.1796,21.60177 l -9.49947,9.81943 z"
   id="path118" /><path
   style="fill:#ff2a2a;stroke-width:1.39535"
   d="m 717.90698,372.34377 c -9.8229,-7.7508 -31.44681,-20.02384 -46.71204,-26.51226 l -13.92134,-5.91721 0.38821,-10.18971 c 0.66658,-17.49607 -5.81352,-37.0426 -17.24555,-52.01938 l -5.11497,-6.70097 26.96102,-26.98765 26.96102,-26.98764 4.69113,4.50878 c 5.27788,5.07274 19.71507,26.06594 24.61136,35.78754 10.10575,20.065 16.12534,46.37408 16.12534,70.47704 0,20.61613 -5.25409,49.74154 -8.94179,49.56777 -0.83783,-0.0395 -4.3489,-2.30132 -7.80239,-5.02631 z"
   id="path119" /><path
   style="fill:#ff2a2a;stroke-width:1.39535"
   d="m 627.2093,264.28779 c -12.3499,-10.62964 -36.76402,-18.64252 -54.1322,-17.76656 l -8.78336,0.44298 -6.05091,-14.23957 c -6.70672,-15.78289 -16.19229,-32.63795 -25.42889,-45.18497 -3.33836,-4.53485 -6.06975,-8.81901 -6.06975,-9.52036 0,-0.70134 5.80814,-2.66285 12.90697,-4.3589 16.12999,-3.85377 42.48068,-5.12099 58.3217,-2.80472 30.6317,4.47895 61.11992,18.30979 82.26079,37.31725 l 7.19295,6.46709 -26.95569,26.98231 c -14.82564,14.84027 -27.27569,26.95679 -27.66679,26.9256 -0.3911,-0.0312 -2.90877,-1.94826 -5.59482,-4.26015 z"
   id="path120" /><path
   style="fill:#ff2a2a;stroke-width:1.39535"
   d="m 496.13117,305.5814 c -0.17714,-7.11534 -5.34848,-26.46214 -10.46478,-39.15034 -5.08644,-12.61416 -13.80326,-27.61189 -22.25819,-38.29638 l -4.95045,-6.25586 5.8874,-6.05502 c 9.22053,-9.48302 25.70584,-21.35538 39.40167,-28.37622 16.54046,-8.47907 18.51227,-9.02428 21.08437,-5.82995 12.08726,15.0114 33.84883,54.61269 34.438,62.66961 0.23833,3.25917 -0.54169,3.88675 -7.57261,6.09278 -22.40987,7.03132 -41.96529,25.10987 -50.28947,46.49149 -5.28788,13.58254 -5.15989,13.37124 -5.27594,8.70989 z"
   id="path121" /><path
   style="fill:#ff2a2a;stroke-width:1.39535"
   d="m 458.37209,291.29715 v -65.21448 l 5.50156,7.65634 c 20.08514,27.95185 29.10415,53.85466 30.38984,87.28038 l 0.75483,19.62404 -6.81149,2.55891 c -3.74631,1.4074 -11.66382,4.97774 -17.59446,7.9341 -5.93064,2.95635 -11.11087,5.37519 -11.51163,5.37519 -0.40076,0 -0.72865,-29.34652 -0.72865,-65.21448 z"
   id="path122" /><path
   style="fill:#ff2a2a;stroke-width:1.39535"
   d="m 474.25635,369.98872 c -5.46133,-3.95891 -11.10766,-7.89132 -12.54741,-8.73868 -2.2819,-1.34301 -1.09758,-2.27564 9.23202,-7.27005 6.51736,-3.15117 14.55604,-6.68169 17.86373,-7.84561 5.60661,-1.97285 5.96797,-1.95298 5.33449,0.29331 -0.37373,1.32524 -1.0868,5.2351 -1.5846,8.68859 -1.50626,10.44964 -5.15109,22.33349 -6.80822,22.19802 -0.85817,-0.0702 -6.02868,-3.36667 -11.49001,-7.32558 z"
   id="path123" /><path
   style="fill:#ff2a2a;stroke-width:1.39535"
   d="m 497.18546,388.0027 -7.93081,-7.47694 2.05588,-6.77451 c 1.13074,-3.72598 2.84999,-11.43307 3.82056,-17.12687 l 1.76468,-10.35237 3.22068,8.95702 c 3.55791,9.89488 6.90591,16.03366 13.11697,24.05084 l 4.12645,5.32639 -5.35847,5.48757 c -2.94715,3.01816 -5.70196,5.46467 -6.12179,5.43669 -0.41983,-0.028 -4.3322,-3.4155 -8.69415,-7.52782 z"
   id="path124" /><path
   style="fill:#ff2a2a;stroke-width:1.39535"
   d=""
   id="path125" /><path
   style="fill:#ff2a2a;stroke-width:1.39535"
   d="m 516.01317,406.90029 -7.24264,-8.03744 5.6353,-5.6353 5.63531,-5.63531 9.97943,6.80344 c 5.48869,3.74189 14.37478,8.35178 19.74687,10.24421 7.74032,2.72669 8.86341,3.44689 5.41148,3.47021 -2.39578,0.0162 -10.54417,1.5992 -18.10754,3.51781 -7.56336,1.9186 -13.76597,3.44819 -13.78357,3.39909 -0.0176,-0.0491 -3.29118,-3.70612 -7.27464,-8.12671 z"
   id="path126" /><path
   style="fill:#ff2a2a;stroke-width:1.39535"
   d="m 424.99177,374.19037 c -2.47191,-7.6464 -5.64734,-22.40472 -5.66882,-26.34675 l -0.0206,-3.78428 10.86374,4.64987 c 5.97506,2.55744 13.65631,6.07454 17.06945,7.81579 l 6.2057,3.16592 -3.42211,2.24756 c -1.88217,1.23616 -7.96158,5.4937 -13.50982,9.46119 l -10.0877,7.21362 z"
   id="path127" /><path
   style="fill:#ff2a2a;stroke-width:1.39535"
   d="m 447.96772,353.61949 c -3.8038,-2.1791 -12.20783,-6.02044 -18.67562,-8.53631 l -11.75962,-4.5743 0.76824,-17.46374 c 0.42253,-9.60506 1.73336,-21.85909 2.91296,-27.23119 4.80055,-21.86262 15.04465,-44.84365 27.30001,-61.2433 l 6.37003,-8.52414 0.37409,33.13954 c 0.20575,18.22674 0.20575,47.82211 0,65.76749 l -0.37409,32.62796 z"
   id="path128" /><path
   style="fill:#ff2a2a;stroke-width:1.39535"
   d="M 413.84059,303.33053 C 406.67605,279.39 386.85699,259.26789 362.1737,250.8736 c -7.97928,-2.71359 -9.10009,-3.5193 -8.75705,-6.29507 1.12095,-9.07021 28.39842,-57.66698 35.83097,-63.83546 4.98443,-4.1367 36.88008,14.13322 55.2279,31.6347 l 9.94124,9.4827 -5.33647,6.97674 c -15.19104,19.86032 -25.23004,41.72417 -30.36021,66.12122 l -3.04762,14.49332 z"
   id="path129" /><path
   style="fill:#ff2a2a;stroke-width:1.39535"
   d="m 252.10628,241.6414 -26.93666,-26.96325 7.41519,-6.30399 c 18.80011,-15.98285 41.60134,-28.0199 64.85164,-34.23601 12.13888,-3.24539 16.46967,-3.68344 37.44727,-3.7877 18.5929,-0.0924 26.13412,0.44677 34.88372,2.49407 19.3243,4.52165 18.57276,3.4532 10.3531,14.71881 -9.18685,12.5912 -21.05005,34.09946 -26.6918,48.39282 l -4.46219,11.30499 -9.13444,-0.61864 c -17.33253,-1.17387 -38.39121,5.54107 -53.45941,17.04649 -3.54081,2.70361 -6.63852,4.91566 -6.88381,4.91566 -0.24528,0 -12.56746,-12.13346 -27.38261,-26.96325 z"
   id="path130" /><path
   style="fill:#ff2a2a;stroke-width:1.39535"
   d="m 184.99086,374.18761 c -6.08252,-18.81542 -8.46878,-45.68886 -5.81701,-65.50964 3.56517,-26.64814 14.89719,-54.7181 30.54227,-75.65471 14.0651,-18.82224 9.58279,-20.03419 40.55076,10.96435 l 26.89263,26.91919 -6.87061,9.97346 c -9.83793,14.28086 -14.51639,29.19359 -14.59396,46.5187 l -0.0602,13.44547 -5.5569,1.66488 c -9.58842,2.87276 -40.27818,19.24056 -52.2168,27.84881 l -11.44127,8.24967 z"
   id="path131" /><path
   style="fill:#ff2a2a;stroke-width:1.39535"
   d="m 221.92995,437.27504 c -4.34804,-4.6964 -11.08995,-13.01617 -14.98202,-18.48837 -8.05465,-11.32475 -19.88909,-35.03388 -18.56034,-37.18383 1.40006,-2.26535 14.3192,-11.4313 26.49613,-18.79863 11.26765,-6.8172 36.97381,-18.87196 40.1448,-18.82568 0.94362,0.0138 3.20705,4.73651 5.02985,10.49497 7.17671,22.67219 26.21863,41.91991 49.53036,50.06567 l 9.21522,3.22005 -7.46596,0.87747 c -11.00798,1.29378 -30.69224,7.32911 -43.53941,13.3495 -11.52091,5.39888 -30.56372,17.50071 -33.94039,21.56935 -1.03087,1.24213 -2.3577,2.25841 -2.94851,2.25841 -0.59081,0 -4.63169,-3.84251 -8.97973,-8.53891 z"
   id="path132" /><path
   style="fill:#ff2a2a;stroke-width:1.39535"
   d="m 378.83721,412.29163 c -4.98837,-1.39552 -12.77071,-2.99198 -17.29409,-3.54768 l -8.22433,-1.01038 7.52665,-2.35325 c 9.72293,-3.03993 17.33688,-7.00176 25.64737,-13.3453 l 6.68073,-5.09951 5.58743,5.58743 5.58743,5.58743 -7.48461,8.50296 c -4.11653,4.67662 -7.81585,8.4383 -8.22071,8.35928 -0.40486,-0.079 -4.8175,-1.28545 -9.80587,-2.68098 z"
   id="path133" /><path
   style="fill:#ff2a2a;stroke-width:1.39535"
   d="m 400.62923,390.16807 -5.28598,-5.41333 5.08169,-6.65738 c 5.98512,-7.84093 9.99999,-15.41601 13.28088,-25.05779 l 2.37959,-6.99306 1.0186,6.77674 c 0.56023,3.72721 2.26337,11.52913 3.78475,17.3376 l 2.76615,10.56086 -8.10652,7.36575 c -4.45859,4.05117 -8.45003,7.3946 -8.86986,7.42985 -0.41983,0.0352 -3.14202,-2.37191 -6.0493,-5.34924 z"
   id="path134" /><path
   style="fill:#ff2a2a;stroke-width:1.39535"
   d=""
   id="path135" /><path
   style="fill:#ff2a2a;stroke-width:1.39535"
   d=""
   id="path136" /><path
   style="fill:#ff2a2a;stroke-width:1.39535"
   d=""
   id="path137" /><path
   style="fill:#ff2a2a;stroke-width:1.39535"
   d=""
   id="path138" /><path
   style="fill:#ff2a2a;stroke-width:1.39535"
   d="m 455.90512,455.5814 c 0,-2.68605 0.28716,-3.78489 0.63812,-2.44187 0.35097,1.34303 0.35097,3.5407 0,4.88373 -0.35096,1.34302 -0.63812,0.24418 -0.63812,-2.44186 z"
   id="path139" /><path
   style="fill:#ff2a2a;stroke-width:1.39535"
   d=""
   id="path140" /><path
   style="fill:#ff2a2a;stroke-width:1.39535"
   d=""
   id="path141" /><path
   style="fill:#ff2a2a;stroke-width:0.49333"
   d=""
   id="path142" /><path
   style="fill:#5a2ca0;stroke-width:0.49333"
   d="m 460.52385,444.98394 c 1.47378,-1.49232 2.79819,-2.70793 2.94313,-2.70134 0.14493,0.007 1.59551,1.21892 3.2235,2.69408 l 2.95998,2.68211 -5.90311,0.0192 -5.90312,0.0192 z"
   id="path143" /><path
   style="fill:#5a2ca0;stroke-width:0.49333"
   d="m 460.52385,451.39724 -2.67962,-2.71332 h 5.39293 5.39293 l -2.67961,2.71332 c -1.47379,1.49232 -2.69478,2.71331 -2.71332,2.71331 -0.0185,0 -1.23953,-1.22099 -2.71331,-2.71331 z"
   id="path144" /><path
   style="fill:#5a2ca0;stroke-width:0.49333"
   d="m 456.22497,455.34388 c 0.004,-1.35666 0.0995,-1.8531 0.21291,-1.10321 0.11339,0.74989 0.11036,1.85988 -0.007,2.46665 -0.11709,0.60677 -0.20987,-0.007 -0.20617,-1.36344 z"
   id="path145" /><path
   style="fill:#5a2ca0;stroke-width:0.49333"
   d=""
   id="path146" /><path
   style="fill:#5a2ca0;stroke-width:0.49333"
   d="m 457.07053,455.07296 v -5.61534 l 2.71399,2.68027 2.71399,2.68028 -2.59066,2.71807 c -1.42486,1.49495 -2.64615,2.81572 -2.71398,2.93507 -0.0678,0.11934 -0.12334,-2.30992 -0.12334,-5.39835 z"
   id="path147" /><path
   style="fill:#5a2ca0;stroke-width:0.49333"
   d=""
   id="path148" /><path
   style="fill:#5a2ca0;stroke-width:0.49333"
   d="m 453.19611,457.64723 -2.49205,-2.87662 2.60776,-2.57537 2.60777,-2.57538 -0.0412,5.45189 c -0.0227,2.99854 -0.0747,5.45193 -0.11571,5.45199 -0.041,6e-5 -1.19595,-1.29437 -2.56658,-2.87651 z"
   id="path149" /><path
   style="fill:#5a2ca0;stroke-width:0.49333"
   d="m 446.95726,451.4045 -2.95998,-2.68212 5.65645,-0.0192 5.65644,-0.0192 -2.67961,2.71332 c -1.47378,1.49232 -2.68719,2.70793 -2.69646,2.70134 -0.009,-0.007 -1.34885,-1.21892 -2.97684,-2.69408 z"
   id="path150" /><path
   style="fill:#5a2ca0;stroke-width:0.49333"
   d="m 446.4645,444.73671 2.92965,-2.96055 2.85153,2.82177 c 1.56835,1.55198 2.85153,2.88423 2.85153,2.96055 0,0.0763 -2.60153,0.13878 -5.78118,0.13878 h -5.78119 z"
   id="path151" /><path
   style="fill:#5a2ca0;stroke-width:0.49333"
   d="m 456.27712,440.79063 c 0,-3.66297 0.0777,-5.16146 0.17258,-3.32998 0.0949,1.83149 0.0949,4.82848 0,6.65996 -0.0949,1.83149 -0.17258,0.333 -0.17258,-3.32998 z"
   id="path152" /><path
   style="fill:#5a2ca0;stroke-width:0.49333"
   d="m 456.18005,445.9706 c 0.01,-0.81399 0.12062,-1.08727 0.2457,-0.60727 0.12508,0.47999 0.11685,1.14599 -0.0183,1.47999 -0.13514,0.334 -0.23748,-0.0587 -0.22742,-0.87272 z"
   id="path153" /><path
   style="fill:#5a2ca0;stroke-width:0.49333"
   d=""
   id="path154" /><path
   style="fill:#5a2ca0;stroke-width:0.49333"
   d="m 457.08977,441.02045 0.0192,-5.90311 2.68211,2.95998 c 1.47517,1.62799 2.6875,3.07856 2.69409,3.2235 0.007,0.14493 -1.20902,1.46934 -2.70135,2.94313 l -2.71332,2.67961 z"
   id="path155" /><path
   style="fill:#5a2ca0;stroke-width:0.49333"
   d="m 452.98455,443.85907 -2.82178,-2.85153 2.96055,-2.92966 2.96055,-2.92966 v 5.78119 c 0,3.17965 -0.0624,5.78119 -0.13877,5.78119 -0.0763,0 -1.40858,-1.28319 -2.96055,-2.85153 z"
   id="path156" /></svg>
